<?xml version="1.0" encoding="UTF-8"?>


<svg version="1.1" xmlns="http://www.w3.org/2000/svg" xmlns:xlink="http://www.w3.org/1999/xlink" x="0px" y="0px" viewBox="0 0 448 512" style="enable-background:new 0 0 448 512;" xml:space="preserve">
    <style type="text/css">
        .copy-button{
            fill: hsl(240, 2%, 88%);
        }
    </style>
    <path class="copy-button" d="
        M433.9,65.9
        l-51.9-51.9
        c-9-9-21.2-14.1-33.9-14.1
        H176
        c-26.5,0-48,21.5-48,48
        v48
        H48
        c-26.5,0-48,21.5-48,48
        v320
        c0,26.5,21.5,48,48,48
        h224
        c26.5,0,48-21.5,48-48
        v-48
        h80
        c26.5,0,48-21.5,48-48
        V99.9
        C448,87.2,442.9,74.9,433.9,65.9
        z
        M352,32.5
        c2.8,0.7,5.4,2.1,7.4,4.2
        l51.9,51.9
        c2,2,3.5,4.6,4.2,7.4
        H352
        V32.5
        z
        M288,464
        c0,8.8-7.2,16-16,16
        H48
        c-8.8,0-16-7.2-16-16
        V144
        c0-8.8,7.2-16,16-16
        h80
        v240
        c0,26.5,21.5,48,48,48
        h112
        V464
        z
        M416,368
        c0,8.8-7.2,16-16,16
        H176
        c-8.8,0-16-7.2-16-16
        V48
        c0-8.8,7.2-16,16-16
        h144
        v72
        c0,13.2,10.8,24,24,24
        h72
        V368
        z
    "/>
</svg>