<?xml version="1.0" encoding="UTF-8"?>
<!-- Generator: Adobe Illustrator 24.0.2, SVG Export Plug-In . SVG Version: 6.00 Build 0)  -->
<svg version="1.1" id="Layer_1" focusable="false" xmlns="http://www.w3.org/2000/svg" xmlns:xlink="http://www.w3.org/1999/xlink" x="0px" y="0px" viewBox="0 0 448 512" style="enable-background:new 0 0 448 512;" xml:space="preserve">
<style type="text/css">
	.st0{fill:#F4F4F4;}
</style>
<path class="st0" d="M433.9,65.9l-51.9-51.9c-9-9-21.2-14.1-33.9-14.1H176c-26.5,0-48,21.5-48,48v48H48c-26.5,0-48,21.5-48,48v320  c0,26.5,21.5,48,48,48h224c26.5,0,48-21.5,48-48v-48h80c26.5,0,48-21.5,48-48V99.9C448,87.2,442.9,74.9,433.9,65.9z M352,32.5  c2.8,0.7,5.4,2.1,7.4,4.2l51.9,51.9c2,2,3.5,4.6,4.2,7.4H352V32.5z M288,464c0,8.8-7.2,16-16,16H48c-8.8,0-16-7.2-16-16V144  c0-8.8,7.2-16,16-16h80v240c0,26.5,21.5,48,48,48h112V464z M416,368c0,8.8-7.2,16-16,16H176c-8.8,0-16-7.2-16-16V48  c0-8.8,7.2-16,16-16h144v72c0,13.2,10.8,24,24,24h72V368z"/>
</svg>