<svg xmlns="http://www.w3.org/2000/svg" width="32" height="32" viewBox="0 0 24 24">
  <path fill="currentColor" fill-rule="evenodd" d="
    M12 22c-4.714 0-7.071 0-8.536-1.465C2 19.072 2 16.714 2 12s0-7.071 1.464-8.536C4.93 2 7.286 2 12 2s7.071 0 8.535 1.464C22 4.93 22 7.286 22 12s0 7.071-1.465 8.535C19.072 22 16.714 22 12 22

    M12 7.5m-1.2 0a1.2 1.2 0 1 0 2.4 0a1.2 1.2 0 1 0-2.4 0

    M8.8 10.0h4.4v1.9h-4.4a0.5 0.5 0 0 1-0.5-0.5v-0.9a0.5 0.5 0 0 1 0.5-0.5z

    M11.0 11.9h2.2v3.9h-2.2z

    M8.0 15.8h8.0a0.5 0.5 0 0 1 0.5 0.5v0.9a0.5 0.5 0 0 1-0.5 0.5H8.0a0.5 0.5 0 0 1-0.5-0.5v-0.9a0.5 0.5 0 0 1 0.5-0.5z
  "/>
</svg>